<?xml version="1.0" encoding="utf-8"?>
<!-- Generator: Adobe Illustrator 25.0.0, SVG Export Plug-In . SVG Version: 6.00 Build 0)  -->
<svg version="1.1" id="Layer_1" xmlns="http://www.w3.org/2000/svg" xmlns:xlink="http://www.w3.org/1999/xlink" x="0px" y="0px"
	 viewBox="0 0 218.54 216.78" style="enable-background:new 0 0 218.54 216.78;" xml:space="preserve">
<style type="text/css">
	.st0{fill-rule:evenodd;clip-rule:evenodd;fill:url(#SVGID_1_);}
	.st1{fill-rule:evenodd;clip-rule:evenodd;fill:url(#SVGID_2_);}
	.st2{fill-rule:evenodd;clip-rule:evenodd;fill:url(#SVGID_3_);}
	.st3{fill-rule:evenodd;clip-rule:evenodd;fill:url(#SVGID_4_);}
	.st4{fill-rule:evenodd;clip-rule:evenodd;fill:url(#SVGID_5_);}
	.st5{fill-rule:evenodd;clip-rule:evenodd;}
	.st6{fill-rule:evenodd;clip-rule:evenodd;fill:#FFFFFF;}
</style>
<g>
	<linearGradient id="SVGID_1_" gradientUnits="userSpaceOnUse" x1="126.3588" y1="96.1026" x2="152.9605" y2="85.1483">
		<stop  offset="0" style="stop-color:#FF6600"/>
		<stop  offset="1" style="stop-color:#FFCC00"/>
	</linearGradient>
	<path class="st0" d="M140.42,31.99c-30.4,5.36-50.69,34.35-45.33,64.74c5.36,30.4,34.35,50.69,64.74,45.33L140.42,31.99z"/>
	<linearGradient id="SVGID_2_" gradientUnits="userSpaceOnUse" x1="77.5781" y1="127.2466" x2="186.3296" y2="-15.1479">
		<stop  offset="0" style="stop-color:#005082"/>
		<stop  offset="0.6" style="stop-color:#1E82C0"/>
		<stop  offset="1" style="stop-color:#3DB5FF"/>
	</linearGradient>
	<path class="st1" d="M27.73,57.76C14.87,50.31,5.26,37.45,2.48,21.67C21.76,34.14,65.55,10.56,105.2,3.57
		c27.18-4.47,56.05,1.27,80.4,18.31l-6,13.06l-28.78,32.1c-6.16,24.32-12.33,48.65-18.49,72.97c-5.36,19.49-1.48,46.2,35.94,72.4
		C68.4,230.02-10.71,141.54,27.73,57.76"/>
	<linearGradient id="SVGID_3_" gradientUnits="userSpaceOnUse" x1="95.9046" y1="199.8741" x2="150.6707" y2="60.6093">
		<stop  offset="0" style="stop-color:#005082"/>
		<stop  offset="0.6" style="stop-color:#1E82C0"/>
		<stop  offset="1" style="stop-color:#3DB5FF"/>
	</linearGradient>
	<path class="st2" d="M179.8,34.49l-0.2,0.45l-28.78,32.1c-6.16,24.32-12.33,48.65-18.49,72.97c-5.34,19.39,5.77,48.2,35.94,72.4
		C36.88,204.27,22.44,47.38,138.02,23.22C149.88,20.74,165.52,29.4,179.8,34.49"/>
	<linearGradient id="SVGID_4_" gradientUnits="userSpaceOnUse" x1="90.2889" y1="111.6702" x2="182.6106" y2="39.6902">
		<stop  offset="0" style="stop-color:#E6E6E6"/>
		<stop  offset="1" style="stop-color:#FEFEFE"/>
	</linearGradient>
	<path class="st3" d="M177.8,32.48c0.52,0.35,1.86,1.13,2.37,1.49l-13.15,44.05l-34.69,62c-23.06-4.78-40.38-19.28-45.39-47.7
		c-5.01-28.42,15.84-62.96,48.07-68.65C150.49,20.94,165.62,24.49,177.8,32.48"/>
	<linearGradient id="SVGID_5_" gradientUnits="userSpaceOnUse" x1="170.2922" y1="86.3004" x2="226.6377" y2="81.9661">
		<stop  offset="0" style="stop-color:#FF6600"/>
		<stop  offset="1" style="stop-color:#FFCC00"/>
	</linearGradient>
	<path class="st4" d="M185.41,21.75c15.06,10.48,26.11,26.73,29.55,46.23c6.85,38.84-19.09,75.88-57.93,82.73
		c13.84-19.76-31.13-31.64-21.91-55.32c5.87-15.06,21.3-6.73,27.62-20.85L185.41,21.75z"/>
	<g>
		<path class="st5" d="M139.75,37.61c-9.39,0-17,7.61-17,17c0,9.39,7.61,17,17,17c9.39,0,17-7.61,17-17
			C156.75,45.22,149.14,37.61,139.75,37.61"/>
		<path class="st6" d="M144.5,42.24c-3.3,0-5.97,2.67-5.97,5.97c0,3.3,2.68,5.97,5.97,5.97c3.3,0,5.97-2.67,5.97-5.97
			C150.47,44.91,147.8,42.24,144.5,42.24"/>
	</g>
</g>
</svg>
